<svg >
		<symbol viewBox="0 0 131 32" fill="none" id="icon-logo" xmlns="http://www.w3.org/2000/svg">
			<path fill="var(--logo-color2)" d="M91.4353 18.459V14.7459H94.722V18.459H91.4353Z"/>
			<path fill="var(--logo-color2)" d="M97.3783 24.3874V0.423967H100.665V1.85928C101.054 1.40164 101.525 1.00641 102.078 0.673585C102.631 0.34076 103.286 0.174347 104.044 0.174347C104.965 0.174347 105.692 0.423966 106.225 0.923204C106.778 1.40164 107.187 2.01529 107.453 2.76415C107.72 3.4922 107.894 4.24106 107.975 5.01072C108.057 5.75958 108.098 6.40443 108.098 6.94527V11.3136C108.098 12.5825 107.975 13.789 107.73 14.9331C107.484 16.0564 107.034 16.9716 106.378 17.6789C105.743 18.3654 104.842 18.7086 103.675 18.7086C103.04 18.7086 102.477 18.5526 101.986 18.2405C101.494 17.9077 101.054 17.5333 100.665 17.1173V24.3874H97.3783ZM103.03 16.0876C103.603 16.0876 104.013 15.8796 104.259 15.4635C104.505 15.0267 104.658 14.4443 104.72 13.7162C104.781 12.9881 104.812 12.1873 104.812 11.3136V6.94527C104.812 6.19641 104.771 5.50996 104.689 4.88591C104.607 4.24106 104.433 3.73142 104.167 3.35699C103.9 2.98256 103.481 2.79535 102.907 2.79535C102.477 2.79535 102.068 2.88896 101.679 3.07617C101.29 3.26339 100.952 3.4818 100.665 3.73142V15.2763C100.972 15.5051 101.32 15.7028 101.709 15.8692C102.098 16.0148 102.539 16.0876 103.03 16.0876Z"/>
			<path fill="var(--logo-color2)" d="M111.179 18.459V0.423967H114.466V2.98256C115.121 1.88008 115.776 1.14162 116.431 0.767193C117.087 0.392763 117.742 0.205549 118.397 0.205549C118.479 0.205549 118.551 0.205549 118.612 0.205549C118.694 0.205549 118.797 0.21595 118.919 0.236751V3.91864C118.674 3.81463 118.387 3.73142 118.059 3.66902C117.752 3.58581 117.435 3.54421 117.107 3.54421C116.595 3.54421 116.124 3.66902 115.694 3.91864C115.285 4.14745 114.875 4.60509 114.466 5.29154V18.459H111.179Z"/>
			<path fill="var(--logo-color2)" d="M125.84 18.7086C124.529 18.7086 123.495 18.4382 122.737 17.8973C121.98 17.3565 121.437 16.5868 121.109 15.5883C120.802 14.5899 120.649 13.4146 120.649 12.0625V6.82046C120.649 5.46836 120.802 4.29306 121.109 3.29459C121.437 2.29611 121.98 1.52645 122.737 0.98561C123.495 0.444768 124.529 0.174347 125.84 0.174347C127.15 0.174347 128.174 0.444768 128.911 0.98561C129.669 1.52645 130.201 2.29611 130.509 3.29459C130.836 4.29306 131 5.46836 131 6.82046V12.0625C131 13.4146 130.836 14.5899 130.509 15.5883C130.201 16.5868 129.669 17.3565 128.911 17.8973C128.174 18.4382 127.15 18.7086 125.84 18.7086ZM125.84 16.2436C126.474 16.2436 126.915 16.0564 127.16 15.6819C127.427 15.3075 127.58 14.8187 127.621 14.2154C127.683 13.5914 127.713 12.9465 127.713 12.2809V6.63325C127.713 5.94679 127.683 5.30194 127.621 4.6987C127.58 4.09545 127.427 3.60661 127.16 3.23218C126.915 2.83695 126.474 2.63934 125.84 2.63934C125.205 2.63934 124.754 2.83695 124.488 3.23218C124.222 3.60661 124.058 4.09545 123.997 4.6987C123.956 5.30194 123.935 5.94679 123.935 6.63325V12.2809C123.935 12.9465 123.956 13.5914 123.997 14.2154C124.058 14.8187 124.222 15.3075 124.488 15.6819C124.754 16.0564 125.205 16.2436 125.84 16.2436Z"/>
			<path fill="var(--logo-color1)" d="M6.94421 31.6513L0 0.271185H4.06677L8.97759 23.3995L13.6582 0.271185H17.6099L10.7424 31.6513H6.94421Z"/>
			<path fill="var(--logo-color1)" d="M21.135 31.6513V0.271185H25.3937V31.6513H21.135Z"/>
			<path fill="var(--logo-color1)" d="M30.4214 31.6513V0.271185H37.5574C38.9641 0.271185 40.1791 0.426149 41.2021 0.736077C42.2508 1.04601 43.1204 1.52381 43.811 2.16949C44.5016 2.81517 45.0132 3.64165 45.3457 4.64891C45.6782 5.63035 45.8444 6.79257 45.8444 8.13559C45.8444 9.42696 45.6782 10.5504 45.3457 11.5061C45.0387 12.4358 44.5528 13.1719 43.8878 13.7143C43.2483 14.2567 42.4171 14.6053 41.394 14.7603C42.6473 15.0444 43.6576 15.5351 44.4249 16.2324C45.1922 16.904 45.7549 17.7821 46.113 18.8668C46.4966 19.9257 46.6885 21.2042 46.6885 22.7022C46.6885 24.0452 46.535 25.272 46.2281 26.3826C45.9211 27.4931 45.4352 28.4358 44.7702 29.2107C44.1307 29.9855 43.2995 30.5924 42.2764 31.0315C41.2789 31.4447 40.0895 31.6513 38.7084 31.6513H30.4214ZM34.7567 28.5133H37.6725C39.6164 28.5133 40.908 28.0613 41.5474 27.1574C42.2125 26.2276 42.5449 24.7425 42.5449 22.7022C42.5449 21.385 42.3659 20.2873 42.0078 19.4092C41.6753 18.5052 41.1254 17.8337 40.3581 17.3947C39.6164 16.9298 38.6061 16.6973 37.3272 16.6973H34.7567V28.5133ZM34.7567 13.3656H37.3272C38.5549 13.3656 39.5141 13.1977 40.2046 12.862C40.8952 12.5004 41.3812 11.9322 41.6625 11.1574C41.9439 10.3826 42.0846 9.3753 42.0846 8.13559C42.0846 6.68927 41.8672 5.64326 41.4323 4.99758C40.9975 4.3519 40.3197 3.95157 39.399 3.79661C38.4782 3.61582 37.2761 3.52542 35.7926 3.52542H34.7567V13.3656Z"/>
			<path fill="var(--logo-color1)" d="M58.4826 32C56.3853 32 54.71 31.5868 53.4567 30.7603C52.2034 29.9338 51.3082 28.7587 50.7711 27.2349C50.234 25.6852 49.9654 23.8773 49.9654 21.8111V9.91768C49.9654 7.85149 50.234 6.08232 50.7711 4.61017C51.3338 3.11219 52.229 1.97579 53.4567 1.20097C54.71 0.400323 56.3853 0 58.4826 0C60.58 0 62.2425 0.400323 63.4702 1.20097C64.6979 2.00161 65.5803 3.13801 66.1174 4.61017C66.6801 6.08232 66.9615 7.85149 66.9615 9.91768V21.8499C66.9615 23.8902 66.6801 25.6723 66.1174 27.1961C65.5803 28.7199 64.6979 29.908 63.4702 30.7603C62.2425 31.5868 60.58 32 58.4826 32ZM58.4826 28.5521C59.6336 28.5521 60.5032 28.3196 61.0915 27.8547C61.6798 27.364 62.0762 26.6925 62.2808 25.8402C62.4855 24.9621 62.5878 23.9419 62.5878 22.7797V9.02663C62.5878 7.86441 62.4855 6.87006 62.2808 6.04358C62.0762 5.19128 61.6798 4.5456 61.0915 4.10654C60.5032 3.64165 59.6336 3.4092 58.4826 3.4092C57.3317 3.4092 56.4492 3.64165 55.8354 4.10654C55.2471 4.5456 54.8507 5.19128 54.6461 6.04358C54.4414 6.87006 54.3391 7.86441 54.3391 9.02663V22.7797C54.3391 23.9419 54.4414 24.9621 54.6461 25.8402C54.8507 26.6925 55.2471 27.364 55.8354 27.8547C56.4492 28.3196 57.3317 28.5521 58.4826 28.5521Z"/>
			<path fill="var(--logo-color1)" d="M71.2225 31.6513V0.271185H77.4761C79.5479 0.271185 81.2615 0.555286 82.6171 1.12349C83.9727 1.66586 84.9702 2.5569 85.6096 3.79661C86.2746 5.01049 86.6071 6.61178 86.6071 8.60048C86.6071 9.81437 86.4793 10.9249 86.2235 11.9322C85.9677 12.9136 85.5585 13.753 84.9958 14.4504C84.4331 15.1219 83.6914 15.6126 82.7706 15.9225L87.1826 31.6513H83.0008L78.934 16.9298H75.5578V31.6513H71.2225ZM75.5578 13.7918H77.2075C78.4352 13.7918 79.4327 13.6368 80.2001 13.3269C80.9674 13.0169 81.5301 12.4875 81.8882 11.7385C82.2462 10.9895 82.4253 9.9435 82.4253 8.60048C82.4253 6.76675 82.0928 5.44956 81.4278 4.64891C80.7628 3.82244 79.4455 3.4092 77.4761 3.4092H75.5578V13.7918Z"/>
			<path fill="var(--logo-color1)" fill-rule="evenodd" clip-rule="evenodd" d="M131 31.6513L91.4353 31.6513L91.4353 28.0194L131 28.0194L131 31.6513Z"/>
		</symbol>

		<symbol viewBox="0 0 40 27" fill="none" id="icon-nav" xmlns="http://www.w3.org/2000/svg">
			<line x1="2" y1="2" x2="38" y2="2" stroke="var(--base-color1)" stroke-width="4" stroke-linecap="round"/>
			<line x1="2" y1="13" x2="38" y2="13" stroke="var(--base-color1)" stroke-width="4" stroke-linecap="round"/>
			<line x1="2" y1="25" x2="38" y2="25" stroke="var(--base-color1)" stroke-width="4" stroke-linecap="round"/>
		</symbol>
	
		<symbol viewBox="0 0 14 14" fill="none" id="icon-loupe" xmlns="http://www.w3.org/2000/svg">
			<path fill="var(--loup-color)" d="M6.1653 0C2.76585 0 0 2.76585 0 6.1653C0 9.56495 2.76585 12.3306 6.1653 12.3306C9.56495 12.3306 12.3306 9.56495 12.3306 6.1653C12.3306 2.76585 9.56495 0 6.1653 0ZM6.1653 11.1924C3.39339 11.1924 1.13821 8.93725 1.13821 6.16533C1.13821 3.39341 3.39339 1.13821 6.1653 1.13821C8.93722 1.13821 11.1924 3.39339 11.1924 6.1653C11.1924 8.93722 8.93722 11.1924 6.1653 11.1924Z"/>
			<path fill="var(--loup-color)" d="M13.8333 13.0285L10.5704 9.76566C10.3481 9.54332 9.98799 9.54332 9.76566 9.76566C9.54332 9.9878 9.54332 10.3482 9.76566 10.5704L13.0286 13.8333C13.1397 13.9444 13.2852 14 13.4309 14C13.5764 14 13.7221 13.9444 13.8333 13.8333C14.0556 13.6111 14.0556 13.2507 13.8333 13.0285Z"/>
		</symbol>

		<symbol viewBox="0 0 15 9" fill="none" id="icon-arrow-long" xmlns="http://www.w3.org/2000/svg">
			<path fill="var(--base-color1)" fill-rule="evenodd" clip-rule="evenodd" d="M9.64645 0.146447C9.84171 -0.0488155 10.1583 -0.0488155 10.3536 0.146447L14.3536 4.14645C14.5488 4.34171 14.5488 4.65829 14.3536 4.85355L10.3536 8.85355C10.1583 9.04882 9.84171 9.04882 9.64645 8.85355C9.45118 8.65829 9.45118 8.34171 9.64645 8.14645L12.7929 5H0.5C0.223858 5 0 4.77614 0 4.5C0 4.22386 0.223858 4 0.5 4H12.7929L9.64645 0.853553C9.45118 0.658291 9.45118 0.341709 9.64645 0.146447Z"/>
		</symbol>

		<symbol viewBox="0 0 5 8" fill="none" id="icon-arrow" xmlns="http://www.w3.org/2000/svg">
			<path fill="var(--base-color1)" fill-rule="evenodd" clip-rule="evenodd" d="M0.146447 0.146447C0.341709 -0.0488155 0.658291 -0.0488155 0.853553 0.146447L4.35355 3.64645C4.54882 3.84171 4.54882 4.15829 4.35355 4.35355L0.853553 7.85355C0.658291 8.04882 0.341709 8.04882 0.146447 7.85355C-0.0488155 7.65829 -0.0488155 7.34171 0.146447 7.14645L3.29289 4L0.146447 0.853553C-0.0488155 0.658291 -0.0488155 0.341709 0.146447 0.146447Z"/>
		</symbol>

		<symbol viewBox="0 0 18 18" fill="none" id="icon-badge" xmlns="http://www.w3.org/2000/svg">
			<path fill="var(--base-color2)" d="M17.9495 14.8346L15.7571 11.5448L16.1414 11.4248C16.2996 11.3754 16.3878 11.2072 16.3384 11.049C16.3364 11.0425 16.3341 11.036 16.3316 11.0297L15.6575 9.29602L17.0303 8.01954C17.1516 7.90666 17.1584 7.71684 17.0455 7.59557C17.0407 7.59032 17.0356 7.58526 17.0303 7.58034L15.6575 6.30416L16.3319 4.57048C16.392 4.41606 16.3155 4.24221 16.161 4.18214C16.1547 4.17966 16.1482 4.17741 16.1417 4.17538L14.337 3.61259L14.1792 1.76162C14.1722 1.67923 14.1318 1.60333 14.0673 1.55162C14.0031 1.50006 13.9204 1.47733 13.839 1.48892L11.9607 1.74902L10.9989 0.145835C10.9138 0.0037121 10.7295 -0.0424498 10.5874 0.0427116C10.5837 0.0449241 10.5801 0.047174 10.5765 0.0495365L9.00006 1.08722L7.42387 0.0495365C7.28554 -0.0416248 7.09947 -0.00337531 7.00831 0.13496C7.00594 0.138523 7.00369 0.14216 7.00148 0.145835L6.03969 1.74962L4.16172 1.48952C3.99762 1.46672 3.84608 1.58128 3.82328 1.74538C3.82253 1.75067 3.82197 1.75599 3.82152 1.76132L3.66342 3.61229L1.86014 4.17509C1.70197 4.22447 1.61381 4.39269 1.6632 4.55087C1.66522 4.55739 1.66747 4.56384 1.66995 4.57018L2.34404 6.30386L0.969756 7.58034C0.848482 7.69322 0.841657 7.88304 0.954531 8.00431C0.959406 8.00956 0.964506 8.01462 0.969756 8.01954L2.34254 9.29572L1.66815 11.0294C1.60811 11.1838 1.68461 11.3577 1.83903 11.4177C1.84541 11.4202 1.85186 11.4225 1.85834 11.4245L2.25644 11.5484L0.0445673 15.1426C-0.0422816 15.2838 0.00166787 15.4685 0.142779 15.5554C0.205853 15.5942 0.281039 15.6083 0.353863 15.595L3.36369 15.0478L3.90608 17.7598C3.92986 17.8788 4.02289 17.9717 4.14188 17.9953C4.16108 17.9987 4.18058 18.0002 4.20008 17.9998C4.30035 17.9998 4.39403 17.9498 4.44967 17.8663L6.55445 14.7092L7.00114 15.454C7.04322 15.5242 7.11214 15.5742 7.19194 15.5923C7.21429 15.5975 7.23713 15.6 7.26004 15.5998C7.31869 15.5998 7.37606 15.5826 7.42504 15.5503L9.00002 14.5127L10.5762 15.5503C10.7145 15.6415 10.9006 15.6033 10.9918 15.4649C10.9941 15.4614 10.9964 15.4577 10.9986 15.454L11.4456 14.7089L13.5504 17.8663C13.606 17.9498 13.6997 17.9998 13.8 17.9998C13.8195 17.9998 13.839 17.9979 13.8582 17.9941C13.9771 17.9705 14.0702 17.8776 14.094 17.7586L14.6399 15.0229L17.6729 15.2998C17.8379 15.3148 17.9838 15.1931 17.9987 15.0281C18.0049 14.9599 17.9876 14.8916 17.9495 14.8346ZM4.35311 16.9306L3.89412 14.6399C3.86206 14.4794 3.70741 14.3743 3.54642 14.4035L0.907956 14.8835L2.84743 11.7329L3.66312 11.9873L3.82092 13.8383C3.82789 13.9207 3.86832 13.9966 3.93282 14.0483C3.99709 14.0996 4.07963 14.1222 4.16112 14.111L6.03939 13.8509L6.21309 14.1407L4.35311 16.9306ZM11.5479 13.373L10.6449 14.8784L9.16505 13.9028C9.06493 13.8368 8.93518 13.8368 8.83506 13.9028L7.35488 14.8772L6.45189 13.3715C6.39774 13.2811 6.30013 13.2257 6.19479 13.2257C6.18092 13.2256 6.16708 13.2266 6.15339 13.2287L4.39211 13.4723L4.24391 11.7356C4.23353 11.614 4.1505 11.5108 4.03392 11.4746L2.34404 10.9472L2.97403 9.32362C3.01862 9.20902 2.98877 9.07886 2.89873 8.99512L1.61475 7.79994L2.90023 6.60475C2.99027 6.52102 3.02012 6.39086 2.97553 6.27626L2.34554 4.65208L4.03602 4.12499C4.1526 4.0888 4.23563 3.9856 4.24601 3.86399L4.39421 2.12731L6.15549 2.37121C6.27519 2.38831 6.39346 2.33191 6.45549 2.22811L7.35848 0.722728L8.83506 1.69712C8.93518 1.76304 9.06493 1.76304 9.16505 1.69712L10.6452 0.722728L11.5482 2.22841C11.6105 2.33112 11.7277 2.38718 11.8467 2.37121L13.608 2.12761L13.7562 3.86429C13.7666 3.9859 13.8496 4.0891 13.9662 4.12529L15.6567 4.65268L15.0249 6.27626C14.9803 6.39086 15.0101 6.52102 15.1002 6.60475L16.3854 7.79994L15.0999 8.99512C15.0098 9.07886 14.98 9.20902 15.0246 9.32362L15.6546 10.9478L13.9656 11.4749C13.849 11.5111 13.766 11.6143 13.7556 11.7359L13.6074 13.4726L11.8464 13.2299C11.7273 13.2139 11.6101 13.2701 11.5479 13.373ZM14.427 14.3999C14.275 14.3881 14.1377 14.4907 14.106 14.6399L13.6479 16.9297L11.7879 14.1398L11.9613 13.8506L13.8393 14.1107C14.0034 14.1335 14.1549 14.0189 14.1777 13.8548C14.1785 13.8495 14.179 13.8442 14.1795 13.8389L14.3376 11.9879L15.1611 11.7311L17.1024 14.6444L14.427 14.3999Z"/>
			<path fill="var(--base-color2)" d="M13.5 6.30004C13.5 5.80299 13.0971 5.40005 12.6 5.40005H10.5V4.20007C10.5008 3.37249 9.83062 2.70091 9.00304 2.70009C9.00203 2.70009 9.00105 2.70009 9.00004 2.70009C8.83437 2.70009 8.70004 2.83441 8.70004 3.00008V4.42927L8.16005 5.50685L7.19466 6.27934C7.18491 6.12338 7.05632 6.00147 6.90006 6.00005H4.80009C4.63441 6.00005 4.50009 6.13437 4.50009 6.30004V10.8C4.50009 10.9657 4.63441 11.1 4.80009 11.1H6.90006C7.06574 11.1 7.20006 10.9657 7.20006 10.8H11.7C12.1961 10.7975 12.5975 10.396 12.6 9.9C12.599 9.74528 12.5576 9.59348 12.48 9.4596C12.5353 9.42507 12.5865 9.38419 12.6324 9.3378C12.9233 9.05491 12.9841 8.61028 12.78 8.25962C12.8353 8.22508 12.8865 8.18421 12.9324 8.13782C13.2233 7.85492 13.2841 7.41029 13.08 7.05963C13.1353 7.0251 13.1865 6.98422 13.2324 6.93784C13.4046 6.77044 13.5012 6.54015 13.5 6.30004ZM6.6001 10.5H5.10012V6.60004H6.6001V10.5ZM12.8082 6.51364C12.7535 6.56963 12.6783 6.60083 12.6 6.60004H11.4V7.20003H12.3C12.4657 7.20003 12.6 7.33436 12.6 7.50003C12.6003 7.58088 12.567 7.6582 12.5082 7.71363C12.4535 7.76961 12.3783 7.80081 12.3 7.80002H11.1V8.40002H12C12.1657 8.40002 12.3 8.53434 12.3 8.70001C12.3003 8.78086 12.267 8.85819 12.2082 8.91361C12.1535 8.9696 12.0783 9.0008 12 9.00001H10.8V9.6H11.7C11.8657 9.6 12 9.73432 12 9.9C12.0003 9.98085 11.967 10.0582 11.9082 10.1136C11.8535 10.1696 11.7783 10.2008 11.7 10.2H7.20006V7.04403L8.58754 5.93435C8.62144 5.90716 8.64908 5.873 8.66854 5.83415L9.26854 4.63416C9.28931 4.5925 9.30007 4.5466 9.30004 4.50007V3.35138C9.66026 3.47779 9.901 3.81832 9.90003 4.20007V5.70005C9.90003 5.86572 10.0344 6.00005 10.2 6.00005H12.6C12.7657 6.00005 12.9 6.13437 12.9 6.30004C12.9003 6.38086 12.867 6.45818 12.8082 6.51364Z"/>
		</symbol>

		<symbol viewBox="0 0 21 20" fill="none" id="icon-close" xmlns="http://www.w3.org/2000/svg">
			<path fill="var(--close)" fill-rule="evenodd" clip-rule="evenodd" d="M0.646447 0.146447C0.841709 -0.0488155 1.15829 -0.0488155 1.35355 0.146447L10.5 9.29289L19.6464 0.146447C19.8417 -0.0488155 20.1583 -0.0488155 20.3536 0.146447C20.5488 0.341709 20.5488 0.658291 20.3536 0.853553L11.2071 10L20.3536 19.1464C20.5488 19.3417 20.5488 19.6583 20.3536 19.8536C20.1583 20.0488 19.8417 20.0488 19.6464 19.8536L10.5 10.7071L1.35355 19.8536C1.15829 20.0488 0.841709 20.0488 0.646447 19.8536C0.451184 19.6583 0.451184 19.3417 0.646447 19.1464L9.79289 10L0.646447 0.853553C0.451184 0.658291 0.451184 0.341709 0.646447 0.146447Z"/>
		</symbol>

		<symbol viewBox="0 0 18 18" fill="none" id="icon-dislike" xmlns="http://www.w3.org/2000/svg">
			<path fill="var(--base-color1)" d="M0 11.25V2.25C0 1.62872 0.503655 1.125 1.125 1.125H4.5V12.375H1.125C0.503655 12.375 0 11.8713 0 11.25Z"/>
			<path fill="var(--base-color1)" d="M15.9224 11.2502H12.599C12.3085 11.2502 12.1629 11.4441 12.114 11.5276C12.0651 11.6106 11.9662 11.8319 12.1069 12.0857L13.2785 14.1956C13.5356 14.6576 13.562 15.2009 13.3516 15.6859C13.1412 16.1715 12.7259 16.5236 12.2123 16.6516L11.3861 16.8582C11.1851 16.9087 10.972 16.8444 10.8319 16.689L6.34618 11.7056C5.88091 11.1876 5.62492 10.5196 5.62492 9.82418V3.93771C5.62492 2.38699 6.8867 1.12521 8.43742 1.12521L14.0333 1.12576C15.2967 1.12576 16.4124 1.97665 16.7458 3.19449L17.9466 8.70523C17.9818 8.85849 17.9999 9.0156 17.9999 9.1727C17.9999 10.318 17.0677 11.2502 15.9224 11.2502L15.9224 11.2502Z"/>
		</symbol>

		<symbol viewBox="0 0 18 18" fill="none" id="icon-like" xmlns="http://www.w3.org/2000/svg">
			<path fill="var(--base-color1)" d="M0 6.75V15.75C0 16.3713 0.503655 16.875 1.125 16.875H4.5V5.625H1.125C0.503655 5.625 0 6.12865 0 6.75Z"/>
			<path fill="var(--base-color1)" d="M15.9224 6.7498H12.599C12.3085 6.7498 12.1629 6.55589 12.114 6.47239C12.0651 6.38945 11.9662 6.16807 12.1069 5.91429L13.2785 3.80436C13.5356 3.34239 13.562 2.79911 13.3516 2.31406C13.1412 1.82847 12.7259 1.47636 12.2123 1.34837L11.3861 1.14182C11.1851 1.09129 10.972 1.15556 10.8319 1.31101L6.34618 6.29441C5.88091 6.81242 5.62492 7.48039 5.62492 8.17582V14.0623C5.62492 15.613 6.8867 16.8748 8.43742 16.8748L14.0333 16.8742C15.2967 16.8742 16.4124 16.0234 16.7458 14.8055L17.9466 9.29477C17.9818 9.14151 17.9999 8.9844 17.9999 8.8273C17.9999 7.68197 17.0677 6.74979 15.9224 6.74979L15.9224 6.7498Z"/>
		</symbol>

		<symbol viewBox="0 0 18 18" fill="none" id="icon-file" xmlns="http://www.w3.org/2000/svg">
			<path fill="var(--base-color1)" d="M11.5985 0.103958C11.516 0.0170289 11.4029 -0.0351562 11.2856 -0.0351562H4.26378C2.96808 -0.0351562 1.89856 1.03011 1.89856 2.32567V15.6039C1.89856 16.8996 2.96808 17.9649 4.26378 17.9649H13.7942C15.0899 17.9649 16.1594 16.8996 16.1594 15.6039V5.06045C16.1594 4.94743 16.1072 4.8388 16.0333 4.75613L11.5985 0.103958ZM11.7246 1.49964L14.6942 4.61701H12.7638C12.1899 4.61701 11.7246 4.15614 11.7246 3.58224V1.49964ZM13.7942 17.0953H4.26378C3.45079 17.0953 2.76813 16.4214 2.76813 15.6039V2.32567C2.76813 1.51268 3.4464 0.834413 4.26378 0.834413H10.855V3.58224C10.855 4.63871 11.7073 5.48658 12.7638 5.48658H15.2898V15.6039C15.2898 16.4214 14.6116 17.0953 13.7942 17.0953Z"/>
			<path fill="var(--base-color1)" d="M12.607 14.0954H5.45053C5.21144 14.0954 5.01575 14.291 5.01575 14.5302C5.01575 14.7693 5.21144 14.965 5.45053 14.965H12.6114C12.8505 14.965 13.0462 14.7693 13.0462 14.5302C13.0462 14.291 12.8505 14.0954 12.607 14.0954Z"/>
			<path fill="var(--base-color1)" d="M8.71135 12.5345C8.79402 12.6214 8.90704 12.6736 9.02872 12.6736C9.15053 12.6736 9.26355 12.6214 9.34609 12.5345L11.894 9.79967C12.0592 9.62568 12.0461 9.34745 11.8723 9.18664C11.6983 9.02143 11.42 9.03434 11.2592 9.20833L9.4635 11.1344V6.38663C9.4635 6.1474 9.26781 5.95184 9.02872 5.95184C8.78963 5.95184 8.59393 6.1474 8.59393 6.38663V11.1344L6.80261 9.20833C6.6374 9.03448 6.36343 9.02143 6.18957 9.18664C6.01571 9.35184 6.00267 9.62582 6.16787 9.79967L8.71135 12.5345Z"/>
		</symbol>

		<symbol viewBox="0 0 18 18" fill="none" id="icon-minus" xmlns="http://www.w3.org/2000/svg">
			<circle fill="var(--base-color2)" cx="9" cy="9" r="9" />
			<path fill="#fff" d="M13.5833 8.58337H4.41666C4.18654 8.58337 4 8.76991 4 9.00003C4 9.23014 4.18654 9.41668 4.41666 9.41668H13.5833C13.8134 9.41668 14 9.23014 14 9.00003C14 8.76991 13.8135 8.58337 13.5833 8.58337Z"/>
		</symbol>

		<symbol viewBox="0 0 18 18" fill="none" id="icon-plus" xmlns="http://www.w3.org/2000/svg">
			<circle fill="var(--base-color2)" cx="9" cy="9" r="9" />
			<path fill="#fff" d="M13.5833 8.58331H9.41666V4.41667C9.41666 4.18655 9.23011 4 8.99998 4C8.76986 4 8.58331 4.18655 8.58331 4.41667V8.58334H4.41667C4.18655 8.58331 4 8.76986 4 8.99998C4 9.23011 4.18655 9.41666 4.41667 9.41666H8.58334V13.5833C8.58334 13.8134 8.76988 14 9.00001 14C9.23014 14 9.41668 13.8134 9.41668 13.5833V9.41666H13.5833C13.8135 9.41666 14 9.23011 14 8.99998C14 8.76986 13.8134 8.58331 13.5833 8.58331Z"/>
			<rect fill="#fff" x="4" y="4" width="10" height="10"/>
		</symbol>

		<symbol viewBox="0 0 18 18" fill="none" id="icon-review" xmlns="http://www.w3.org/2000/svg">
			<circle fill="var(--base-color2)" cx="9" cy="9" r="9"/>
			<path fill="#fff" d="M6.29165 6.91663H10.875C10.9901 6.91663 11.0833 6.82344 11.0833 6.70828C11.0833 6.59312 10.9901 6.49994 10.875 6.49994H6.29165C6.17649 6.49994 6.08331 6.59312 6.08331 6.70828C6.08332 6.82346 6.17651 6.91663 6.29165 6.91663Z"/>
			<path fill="#fff" d="M8.79166 8.99994H6.29165C6.17649 8.99994 6.08331 9.09312 6.08331 9.20828C6.08331 9.32343 6.17649 9.41662 6.29165 9.41662H8.79166C8.90682 9.41662 9 9.32343 9 9.20828C9 9.09312 8.90682 8.99994 8.79166 8.99994Z"/>
			<path fill="#fff" d="M13.2025 5.24997C13.1904 5.24997 13.1787 5.25299 13.1667 5.25356V5.24997C13.1667 4.79038 12.7927 4.41663 12.3333 4.41663H4.83334C4.37395 4.41663 4 4.79038 4 5.24997V13.375C4 13.4592 4.05086 13.5353 4.12857 13.5674C4.15422 13.5782 4.18146 13.5833 4.20832 13.5833C4.26244 13.5833 4.31574 13.5622 4.35563 13.5223L6.37793 11.5H12.3333C12.7927 11.5 13.1667 11.1262 13.1667 10.6666V7.21112L13.7664 6.61145C13.7664 6.61145 13.7664 6.61145 13.7664 6.61125C13.915 6.46274 14 6.25725 14 6.04749C14 5.60764 13.6423 5.24997 13.2025 5.24997ZM12.75 10.6666C12.75 10.8963 12.5632 11.0833 12.3333 11.0833H6.29166C6.23633 11.0833 6.18342 11.1053 6.14436 11.1443L4.41666 12.872V5.24997C4.41666 5.02028 4.60344 4.83331 4.83332 4.83331H12.3333C12.5632 4.83331 12.75 5.02028 12.75 5.24997V5.39227C12.7104 5.41946 12.6726 5.44936 12.6385 5.48352L10.3717 7.74997H6.29166C6.1765 7.74997 6.08332 7.84315 6.08332 7.95831C6.08332 8.07346 6.1765 8.16665 6.29166 8.16665H10.0375L9.8374 9.16743C9.82357 9.23579 9.84514 9.30639 9.89437 9.35561C9.93385 9.39508 9.98715 9.41665 10.0417 9.41665C10.0551 9.41665 10.0689 9.41522 10.0824 9.41258L11.1236 9.20424C11.1643 9.1961 11.2013 9.17637 11.2302 9.14727L12.75 7.62774V10.6666ZM10.9804 8.80811L10.3074 8.9428L10.4421 8.26897L12.3332 6.3778L12.8721 6.91661L10.9804 8.80811ZM13.4718 6.31686L13.1667 6.62204L12.6278 6.08319L12.9331 5.77792C13.0039 5.70731 13.102 5.66663 13.2025 5.66663C13.4124 5.66663 13.5833 5.83752 13.5833 6.04749C13.5833 6.14758 13.5426 6.24586 13.4718 6.31686Z"/>
		</symbol>

		<symbol viewBox="0 0 20 20" fill="none" id="icon-user"  xmlns="http://www.w3.org/2000/svg">
			<circle cx="10" cy="10" r="10" fill="#F7F8F9"/>
			<mask id="mask0" mask-type="alpha" maskUnits="userSpaceOnUse" x="0" y="0" width="20" height="20">
			<circle cx="10" cy="10" r="10" fill="#C4C4C4"/>
			</mask>
			<path fill="var(--base-color1)" d="M10.0012 2C7.42979 2 5.32776 4.10203 5.32776 6.67348C5.32776 9.24492 7.42979 11.347 10.0012 11.347C12.5727 11.347 14.6747 9.24492 14.6747 6.67348C14.6747 4.10203 12.5727 2 10.0012 2Z"/>
			<path fill="var(--base-color1)" d="M18.0217 15.0816C17.8993 14.7754 17.736 14.4897 17.5524 14.2244C16.6136 12.8367 15.1646 11.9183 13.532 11.6938C13.3279 11.6734 13.1034 11.7142 12.9401 11.8367C12.083 12.4693 11.0626 12.7958 10.0013 12.7958C8.94009 12.7958 7.9197 12.4693 7.06255 11.8367C6.89927 11.7142 6.67478 11.653 6.47071 11.6938C4.83806 11.9183 3.36868 12.8367 2.45032 14.2244C2.26665 14.4897 2.10337 14.7959 1.98095 15.0816C1.91974 15.204 1.94013 15.3469 2.00134 15.4693C2.16462 15.7551 2.36868 16.0408 2.55236 16.2857C2.83806 16.6734 3.14419 17.0204 3.49114 17.3469C3.77685 17.6326 4.10337 17.8979 4.42993 18.1632C6.04216 19.3673 7.98095 19.9999 9.98095 19.9999C11.9809 19.9999 13.9197 19.3673 15.532 18.1632C15.8585 17.9183 16.185 17.6326 16.4708 17.3469C16.7973 17.0204 17.1238 16.6734 17.4095 16.2857C17.6136 16.0204 17.7973 15.7551 17.9606 15.4693C18.0625 15.3469 18.0829 15.204 18.0217 15.0816Z"/>
		</symbol>

		<symbol viewBox="0 0 12 12" fill="none" id="icon-feedback" xmlns="http://www.w3.org/2000/svg">
			<path fill="var(--base-color1)" d="M2.74998 3.49998H8.24999C8.38817 3.49998 8.49999 3.38816 8.49999 3.24998C8.49999 3.11179 8.38817 2.99997 8.24999 2.99997H2.74998C2.61179 2.99997 2.49997 3.11179 2.49997 3.24998C2.49999 3.38819 2.61181 3.49998 2.74998 3.49998Z"/>
			<path fill="var(--base-color1)" d="M5.74999 6H2.74998C2.61179 6 2.49997 6.11182 2.49997 6.25001C2.49997 6.3882 2.61179 6.50002 2.74998 6.50002H5.74999C5.88818 6.50002 6 6.3882 6 6.25001C6 6.11182 5.88818 6 5.74999 6Z"/>
			<path fill="var(--base-color1)" d="M11.043 1.50001C11.0285 1.50001 11.0145 1.50364 11 1.50432V1.50001C11 0.9485 10.5513 0.5 10 0.5H1.00001C0.448734 0.5 0 0.9485 0 1.50001V11.25C0 11.3511 0.0610313 11.4424 0.154289 11.481C0.185063 11.4939 0.217758 11.5 0.249984 11.5C0.31493 11.5 0.378891 11.4746 0.42675 11.4268L2.85352 9H10C10.5513 9 11 8.55153 11 7.99999V3.85339L11.7197 3.13379C11.7197 3.13379 11.7197 3.13379 11.7197 3.13355C11.898 2.95533 12 2.70875 12 2.45703C12 1.92922 11.5708 1.50001 11.043 1.50001ZM10.5 7.99999C10.5 8.27562 10.2759 8.49999 10 8.49999H2.74999C2.68359 8.49999 2.6201 8.52635 2.57323 8.57323L0.499992 10.6465V1.50001C0.499992 1.22438 0.724125 1.00002 0.999984 1.00002H9.99998C10.2759 1.00002 10.5 1.22438 10.5 1.50001V1.67077C10.4525 1.7034 10.4071 1.73928 10.3662 1.78027L7.64606 4.5H2.74999C2.6118 4.5 2.49998 4.61183 2.49998 4.75001C2.49998 4.8882 2.6118 5.00002 2.74999 5.00002H7.24495L7.00488 6.20096C6.98829 6.28299 7.01416 6.36771 7.07325 6.42678C7.12062 6.47414 7.18458 6.50002 7.25002 6.50002C7.26614 6.50002 7.28273 6.49831 7.29884 6.49514L8.54836 6.24514C8.59718 6.23536 8.64162 6.21169 8.67628 6.17677L10.5 4.35333V7.99999ZM8.37647 5.76978L7.56886 5.9314L7.73048 5.12281L9.99989 2.8534L10.6465 3.49997L8.37647 5.76978ZM11.3662 2.78028L11 3.14649L10.3534 2.49987L10.7197 2.13355C10.8047 2.04882 10.9223 2 11.043 2C11.2949 2 11.5 2.20508 11.5 2.45703C11.5 2.57715 11.4512 2.69508 11.3662 2.78028Z"/>
		</symbol>

		<symbol viewBox="0 0 12 12" fill="none" id="icon-products" xmlns="http://www.w3.org/2000/svg">
			<path fill="var(--base-color1)" d="M12 6.00033C12 5.71507 11.8487 5.45512 11.5946 5.30437L10.9264 4.91126C11.1839 4.75841 11.4132 4.62208 11.5952 4.51383C11.8487 4.36254 12 4.10259 12 3.8184C12 3.5342 11.8487 3.27425 11.5952 3.12268C10.7599 2.62595 7.92773 0.942868 6.5316 0.142507C6.20827 -0.0431441 5.81515 -0.0505845 5.46571 0.144117C5.46571 0.144117 1.66884 2.37428 0.405333 3.12245C0.151287 3.27318 0 3.53313 0 3.8184C0 4.10259 0.151287 4.36254 0.404821 4.51411C0.586739 4.62229 0.816086 4.75859 1.07343 4.91136L0.405358 5.30437C0.151287 5.45512 0 5.71507 0 6.00033C0 6.28453 0.151287 6.54448 0.404821 6.69605C0.586739 6.80422 0.816086 6.94053 1.07343 7.0933L0.405358 7.48631C0.151287 7.63706 0 7.89701 0 8.18227C0 8.46646 0.151287 8.72642 0.404821 8.87798C1.48561 9.52067 4.14205 11.0977 5.4684 11.8582C5.63086 11.9514 5.81518 12.0007 6.00001 12.0007C6.18485 12.0007 6.36917 11.9514 6.53216 11.8579C7.85798 11.0977 10.5144 9.52067 11.5952 8.8777C11.8488 8.72642 12 8.46646 12 8.18227C12 7.89701 11.8487 7.63706 11.5947 7.48631L10.9265 7.0932C11.1839 6.94035 11.4133 6.80402 11.5952 6.69576C11.8487 6.54448 12 6.28453 12 6.00033ZM0.683949 4.04603C0.642401 4.021 0.545446 3.94907 0.545446 3.81886C0.545446 3.68807 0.641864 3.61671 0.683412 3.59219C1.94531 2.84486 5.73687 0.618024 5.73633 0.61828C5.90999 0.520532 6.0996 0.524265 6.26048 0.616413C7.65287 1.41463 10.4824 3.09574 11.3161 3.59166C11.3576 3.61669 11.4546 3.68861 11.4546 3.81883C11.4546 3.94905 11.3576 4.02097 11.3161 4.04575C10.2369 4.68761 7.58363 6.263 6.26101 7.02099C6.09694 7.11475 5.90252 7.11447 5.73952 7.02125C4.41637 6.263 1.76313 4.68764 0.683949 4.04603ZM11.3166 7.95582C11.3581 7.98031 11.4546 8.0517 11.4546 8.18248C11.4546 8.31272 11.3576 8.38462 11.3161 8.4094C10.2369 9.05126 7.58363 10.6266 6.26101 11.3846C6.09694 11.4784 5.90252 11.4781 5.73952 11.3849C4.41637 10.6266 1.76313 9.05126 0.683949 8.40965C0.642401 8.38462 0.545446 8.3127 0.545446 8.18248C0.545446 8.0517 0.641864 7.98034 0.683412 7.95582L1.60896 7.41119C2.85996 8.15269 4.51018 9.12699 5.4684 9.67633C5.63086 9.76955 5.81518 9.81882 6.00001 9.81882C6.18485 9.81882 6.36917 9.76955 6.53216 9.67607C7.48997 9.12692 9.14004 8.15277 10.391 7.41116L11.3166 7.95582ZM11.3161 6.22759C10.2369 6.86945 7.58363 8.44483 6.26101 9.20283C6.09694 9.29659 5.90252 9.29631 5.73952 9.20308C4.41637 8.44481 1.76313 6.86945 0.683949 6.22784C0.642401 6.20281 0.545446 6.13089 0.545446 6.00067C0.545446 5.86989 0.641864 5.79852 0.683412 5.77401L1.60896 5.22938C2.85996 5.97088 4.51018 6.94518 5.4684 7.49451C5.63086 7.58774 5.81518 7.63701 6.00001 7.63701C6.18485 7.63701 6.36917 7.58774 6.53216 7.49426C7.48997 6.94511 9.14004 5.97096 10.391 5.22935L11.3166 5.77401C11.3582 5.7985 11.4546 5.86989 11.4546 6.00067C11.4546 6.13089 11.3576 6.20281 11.3161 6.22759Z"/>
			<rect width="12" height="12" fill="#fff"/>
		</symbol>

		<symbol viewBox="0 0 18 18" fill="none" id="icon-show-more" xmlns="http://www.w3.org/2000/svg">
			<path fill="var(--base-color1)" d="M17.5076 7.93366C17.4492 7.568 17.1055 7.31889 16.7398 7.37723C16.3741 7.43557 16.125 7.77931 16.1834 8.14498C16.184 8.14899 16.1847 8.15295 16.1854 8.15692C16.8681 12.1762 14.1633 15.988 10.144 16.6708C6.1247 17.3536 2.31293 14.6488 1.63015 10.6295C0.947368 6.61014 3.6522 2.79837 7.67149 2.11559C10.1433 1.69571 12.6592 2.55912 14.3523 4.40832L11.3821 5.39792C11.0308 5.51483 10.8408 5.8944 10.9576 6.24577C10.9577 6.24585 10.9577 6.24597 10.9577 6.24605C11.0747 6.59741 11.4542 6.78744 11.8056 6.67056C11.8057 6.67052 11.8058 6.67049 11.8059 6.67049L15.8287 5.32956C16.1026 5.23834 16.2873 4.982 16.2873 4.6933V0.670482C16.2873 0.300179 15.9871 0 15.6168 0C15.2465 0 14.9463 0.300179 14.9463 0.670482V3.11968C11.4935 -0.164409 6.03207 -0.0275781 2.74797 3.42528C-0.536125 6.87815 -0.399333 12.3395 3.05357 15.6237C6.50648 18.9078 11.9678 18.771 15.252 15.3181C17.1247 13.3491 17.9604 10.613 17.5076 7.93366Z"/>
		</symbol>

		<symbol viewBox="0 0 18 17" fill="none" id="icon-star-fill" xmlns="http://www.w3.org/2000/svg">
			<path fill="var(--base-color2)" d="M7.91033 0.690983C8.20968 -0.230328 9.51309 -0.230328 9.81244 0.690983L11.2188 5.01925C11.3527 5.43128 11.7366 5.71024 12.1698 5.71024H16.7208C17.6896 5.71024 18.0923 6.94985 17.3086 7.51925L13.6268 10.1943C13.2763 10.4489 13.1296 10.9003 13.2635 11.3123L14.6699 15.6406C14.9692 16.5619 13.9147 17.328 13.131 16.7586L9.44917 14.0836C9.09868 13.8289 8.62409 13.8289 8.2736 14.0836L4.59175 16.7586C3.80804 17.328 2.75356 16.5619 3.05291 15.6406L4.45925 11.3123C4.59312 10.9003 4.44647 10.4489 4.09598 10.1943L0.414132 7.51925C-0.369582 6.94985 0.0331929 5.71024 1.00192 5.71024H5.55293C5.98616 5.71024 6.37011 5.43128 6.50399 5.01925L7.91033 0.690983Z"/>
		</symbol>
		<symbol viewBox="0 0 18 17" fill="none" id="icon-star" xmlns="http://www.w3.org/2000/svg">
			<path fill="var(--base-color2)" fill-rule="evenodd" clip-rule="evenodd" d="M10.2677 5.32827L8.86138 1L7.45504 5.32827C7.18729 6.15232 6.41938 6.71024 5.55293 6.71024L1.00192 6.71024L4.68376 9.38526C5.38474 9.89454 5.67805 10.7973 5.41031 11.6213L4.00397 15.9496L7.68581 13.2746C8.38679 12.7653 9.33598 12.7653 10.037 13.2746L13.7188 15.9496L12.3125 11.6213C12.0447 10.7973 12.338 9.89454 13.039 9.38526L16.7208 6.71024H12.1698C11.3034 6.71024 10.5355 6.15232 10.2677 5.32827ZM9.81244 0.690983C9.51309 -0.230328 8.20968 -0.230328 7.91033 0.690983L6.50399 5.01925C6.37011 5.43128 5.98616 5.71024 5.55293 5.71024H1.00192C0.0331928 5.71024 -0.369582 6.94985 0.414132 7.51925L4.09598 10.1943C4.44647 10.4489 4.59312 10.9003 4.45925 11.3123L3.05291 15.6406C2.75356 16.5619 3.80804 17.328 4.59175 16.7586L8.2736 14.0836C8.62409 13.8289 9.09868 13.8289 9.44917 14.0836L13.131 16.7586C13.9147 17.328 14.9692 16.5619 14.6699 15.6406L13.2635 11.3123C13.1296 10.9003 13.2763 10.4489 13.6268 10.1943L17.3086 7.51925C18.0923 6.94985 17.6896 5.71024 16.7208 5.71024H12.1698C11.7366 5.71024 11.3527 5.43128 11.2188 5.01925L9.81244 0.690983Z"/>
		</symbol>

</svg>
